<?xml version="1.0" encoding="UTF-8" standalone="no"?>
<svg
   width="14"
   height="15"
   viewBox="0 -5 13 25"
   fill="none"
   version="1.1"
   id="svg1"
   sodipodi:docname="binocle.svg"
   inkscape:version="1.4 (86a8ad7, 2024-10-11)"
   xmlns:inkscape="http://www.inkscape.org/namespaces/inkscape"
   xmlns:sodipodi="http://sodipodi.sourceforge.net/DTD/sodipodi-0.dtd"
   xmlns:xlink="http://www.w3.org/1999/xlink"
   xmlns="http://www.w3.org/2000/svg"
   xmlns:svg="http://www.w3.org/2000/svg">
  <sodipodi:namedview
     id="namedview1"
     pagecolor="#ffffff"
     bordercolor="#000000"
     borderopacity="0.25"
     inkscape:showpageshadow="2"
     inkscape:pageopacity="0.0"
     inkscape:pagecheckerboard="0"
     inkscape:deskcolor="#d1d1d1"
     inkscape:zoom="38.042345"
     inkscape:cx="3.9955476"
     inkscape:cy="7.925379"
     inkscape:window-width="1920"
     inkscape:window-height="1009"
     inkscape:window-x="-8"
     inkscape:window-y="-8"
     inkscape:window-maximized="1"
     inkscape:current-layer="svg1" />
  <g
     clip-path="url(#clip0_239_13)"
     id="g1"
     style="fill:url(#linearGradient2)">
    <path
       d="M2 1.5C2 0.671573 2.67157 0 3.5 0H4.5C5.32843 0 6 0.671573 6 1.5V4H8V1.5C8 0.671573 8.67157 0 9.5 0H10.5C11.3284 0 12 0.671573 12 1.5V3.88197C12 4.07135 12.107 4.24448 12.2764 4.32918L13.1708 4.77639C13.679 5.03048 14 5.54988 14 6.11803V13.5C14 14.3284 13.3284 15 12.5 15H9.5C8.67157 15 8 14.3284 8 13.5V10.5C8 10.3674 8.05268 10.2402 8.14645 10.1464L9 9.29289V8.5C9 8.22386 8.77614 8 8.5 8H5.5C5.22386 8 5 8.22386 5 8.5V9.29289L5.85355 10.1464C5.94732 10.2402 6 10.3674 6 10.5V13.5C6 14.3284 5.32843 15 4.5 15H1.5C0.671573 15 0 14.3284 0 13.5V6.11803C0 5.54988 0.321004 5.03048 0.82918 4.77639L1.72361 4.32918C1.893 4.24448 2 4.07135 2 3.88197V1.5ZM3.5 1C3.22386 1 3 1.22386 3 1.5V2H5V1.5C5 1.22386 4.77614 1 4.5 1H3.5ZM5 3H3V3.88197C3 4.45012 2.679 4.96952 2.17082 5.22361L1.27639 5.67082C1.107 5.75552 1 5.92865 1 6.11803V12H5V10.7071L4.14645 9.85355C4.05268 9.75979 4 9.63261 4 9.5V8.5C4 7.67157 4.67157 7 5.5 7H8.5C9.32843 7 10 7.67157 10 8.5V9.5C10 9.63261 9.94732 9.75979 9.85355 9.85355L9 10.7071V12H13V6.11803C13 5.92865 12.893 5.75552 12.7236 5.67082L11.8292 5.22361C11.321 4.96952 11 4.45012 11 3.88197V3H9V4.5C9 4.77614 8.77614 5 8.5 5H5.5C5.22386 5 5 4.77614 5 4.5V3ZM9 2H11V1.5C11 1.22386 10.7761 1 10.5 1H9.5C9.22386 1 9 1.22386 9 1.5V2ZM13 13H9V13.5C9 13.7761 9.22386 14 9.5 14H12.5C12.7761 14 13 13.7761 13 13.5V13ZM5 13H1V13.5C1 13.7761 1.22386 14 1.5 14H4.5C4.77614 14 5 13.7761 5 13.5V13Z"
       fill="#6D37FF"
       id="path1"
       style="fill:url(#linearGradient2)" />
  </g>
  <defs
     id="defs1">
    <linearGradient
       id="linearGradient1"
       inkscape:collect="always">
      <stop
         style="stop-color:#6d37ff;stop-opacity:1;"
         offset="0.5433526"
         id="stop1" />
      <stop
         style="stop-color:#ffffff;stop-opacity:0;"
         offset="1"
         id="stop2" />
    </linearGradient>
    <clipPath
       id="clip0_239_13">
      <rect
         width="14"
         height="15"
         fill="white"
         id="rect1" />
    </clipPath>
    <linearGradient
       inkscape:collect="always"
       xlink:href="#linearGradient1"
       id="linearGradient2"
       x1="2.4075859"
       y1="2.2170331"
       x2="11.592412"
       y2="12.782967"
       gradientUnits="userSpaceOnUse" />
  </defs>
</svg>
