<?xml version="1.0" encoding="UTF-8" standalone="no"?>
<svg
   viewBox="0 -5 24 35"
   width="24"
   height="24"
   version="1.1"
   id="svg1"
   sodipodi:docname="block.svg"
   inkscape:version="1.4 (86a8ad7, 2024-10-11)"
   xmlns:inkscape="http://www.inkscape.org/namespaces/inkscape"
   xmlns:sodipodi="http://sodipodi.sourceforge.net/DTD/sodipodi-0.dtd"
   xmlns:xlink="http://www.w3.org/1999/xlink"
   xmlns="http://www.w3.org/2000/svg"
   xmlns:svg="http://www.w3.org/2000/svg">
  <defs
     id="defs1">
    <linearGradient
       id="linearGradient15"
       inkscape:collect="always">
      <stop
         style="stop-color:#6421ff;stop-opacity:1;"
         offset="0.30289018"
         id="stop15" />
      <stop
         style="stop-color:#ffffff;stop-opacity:0;"
         offset="1"
         id="stop16" />
    </linearGradient>
    <linearGradient
       id="swatch13">
      <stop
         style="stop-color:#000000;stop-opacity:1;"
         offset="0"
         id="stop14" />
    </linearGradient>
    <linearGradient
       inkscape:collect="always"
       xlink:href="#linearGradient15"
       id="linearGradient16"
       x1="5.2419405"
       y1="2.7582967"
       x2="18.768064"
       y2="21.37541"
       gradientUnits="userSpaceOnUse" />
  </defs>
  <sodipodi:namedview
     id="namedview1"
     pagecolor="#ffffff"
     bordercolor="#000000"
     borderopacity="0.25"
     inkscape:showpageshadow="2"
     inkscape:pageopacity="0.0"
     inkscape:pagecheckerboard="0"
     inkscape:deskcolor="#d1d1d1"
     inkscape:zoom="23.776466"
     inkscape:cx="15.47749"
     inkscape:cy="11.292679"
     inkscape:window-width="1920"
     inkscape:window-height="1009"
     inkscape:window-x="-8"
     inkscape:window-y="-8"
     inkscape:window-maximized="1"
     inkscape:current-layer="svg1" />
  <path
     d="m 13.152,0.682 c 0.701022,-0.40906766 1.567978,-0.40906766 2.269,0 l 0.007,0.004 6.957,4.276 c 0.697247,0.4084814 1.125762,1.1559094 1.126,1.964 v 7.516 c 0,0.81 -0.432,1.56 -1.133,1.968 l -0.002,0.001 -11.964,7.037 -0.004,0.003 c -0.706,0.41 -1.578,0.41 -2.284,0 L 8.098,23.436 1.595,18.934 C 0.91438032,18.523184 0.4985481,17.785992 0.499,16.991 V 9.438 c 0,-0.392 0.1,-0.77 0.284,-1.1 L 0.786,8.332 0.8,8.306 C 0.997,7.964 1.28,7.679 1.62,7.479 h 0.002 l 11.53,-6.798 z m 0.757,1.295 h -0.001 l -11.26,6.639 6.248,4.247 c 0.2371667,0.128899 0.5243163,0.125111 0.758,-0.01 H 9.655 L 21.288,6.049 14.659,1.975 C 14.426414,1.8419524 14.140515,1.843096 13.909,1.978 Z M 8.517,14.33 C 8.3806086,14.282548 8.2490205,14.222279 8.124,14.15 L 8.101,14.136 1.999,9.989 v 7.003 c 0,0.275 0.145,0.528 0.379,0.664 l 0.025,0.014 6.114,4.232 z M 18,9.709 l -3.25,1.9 v 7.548 L 18,17.245 Z m -7.59,4.438 -0.002,0.002 c -0.124409,0.07211 -0.255318,0.132376 -0.391,0.18 v 7.612 L 13.25,20.039 V 12.487 Z M 19.5,8.831 v 7.532 l 2.124,-1.25 c 0.23939,-0.138688 0.386837,-0.394338 0.387,-0.671 V 7.363 Z"
     id="path1"
     style="fill:url(#linearGradient16);fill-opacity:1;stroke:none;stroke-width:1.1;stroke-dasharray:none;stroke-opacity:1;paint-order:fill markers stroke"
     sodipodi:nodetypes="cccccsccccccccscccccccccccccccccccccscccccccccccccccccccccc"
     inkscape:label="path1" />
</svg>
