<?xml version="1.0" encoding="UTF-8" standalone="no"?>
<svg
   width="24"
   height="24"
   viewBox="0 -5 24 35"
   fill="none"
   version="1.1"
   id="svg3"
   sodipodi:docname="cable.svg"
   inkscape:version="1.4 (86a8ad7, 2024-10-11)"
   xmlns:inkscape="http://www.inkscape.org/namespaces/inkscape"
   xmlns:sodipodi="http://sodipodi.sourceforge.net/DTD/sodipodi-0.dtd"
   xmlns:xlink="http://www.w3.org/1999/xlink"
   xmlns="http://www.w3.org/2000/svg"
   xmlns:svg="http://www.w3.org/2000/svg">
  <defs
     id="defs3">
    <linearGradient
       id="linearGradient7"
       inkscape:collect="always">
      <stop
         style="stop-color:#6d37ff;stop-opacity:1;"
         offset="1"
         id="stop7" />
      <stop
         style="stop-color:#6d37ff;stop-opacity:0;"
         offset="1"
         id="stop8" />
    </linearGradient>
    <linearGradient
       id="linearGradient5"
       inkscape:collect="always">
      <stop
         style="stop-color:#6d37ff;stop-opacity:0;"
         offset="0"
         id="stop6" />
      <stop
         style="stop-color:#6d37ff;stop-opacity:1;"
         offset="0.7100001"
         id="stop5" />
    </linearGradient>
    <linearGradient
       id="linearGradient3"
       inkscape:collect="always">
      <stop
         style="stop-color:#6d37ff;stop-opacity:1;"
         offset="0.41618499"
         id="stop3" />
      <stop
         style="stop-color:#ffffff;stop-opacity:0;"
         offset="1"
         id="stop4" />
    </linearGradient>
    <linearGradient
       inkscape:collect="always"
       xlink:href="#linearGradient3"
       id="linearGradient4"
       x1="5.463582"
       y1="2.9191289"
       x2="19.588097"
       y2="22.359856"
       gradientUnits="userSpaceOnUse" />
    <linearGradient
       inkscape:collect="always"
       xlink:href="#linearGradient5"
       id="linearGradient6"
       x1="21.017002"
       y1="18.240601"
       x2="19.516994"
       y2="18.240601"
       gradientUnits="userSpaceOnUse"
       gradientTransform="rotate(44.601583,14.331742,2.5862635)" />
    <linearGradient
       inkscape:collect="always"
       xlink:href="#linearGradient7"
       id="linearGradient8"
       x1="18.017002"
       y1="18.233101"
       x2="16.516996"
       y2="18.233101"
       gradientUnits="userSpaceOnUse"
       gradientTransform="rotate(-133.99222,10.611639,20.857571)" />
  </defs>
  <sodipodi:namedview
     id="namedview3"
     pagecolor="#ffffff"
     bordercolor="#000000"
     borderopacity="0.25"
     inkscape:showpageshadow="2"
     inkscape:pageopacity="0.0"
     inkscape:pagecheckerboard="0"
     inkscape:deskcolor="#d1d1d1"
     inkscape:zoom="32.28"
     inkscape:cx="12.484511"
     inkscape:cy="12.5"
     inkscape:window-width="1920"
     inkscape:window-height="1009"
     inkscape:window-x="-8"
     inkscape:window-y="-8"
     inkscape:window-maximized="1"
     inkscape:current-layer="svg3" />
  <path
     d="m 3.5600569,18.411885 c 0.286896,0.298754 0.761765,0.308309 1.060449,0.02134 0.298754,-0.286896 0.308238,-0.761695 0.02134,-1.060449 -0.286968,-0.298684 -0.761695,-0.308237 -1.060521,-0.02127 -0.298684,0.286967 -0.308237,0.761695 -0.02127,1.060379 z"
     fill="#6D37FF"
     id="path1"
     style="fill:url(#linearGradient8)" />
  <path
     d="m 7.0329659,17.37185 c 0.291552,-0.294211 0.766442,-0.296241 1.060653,-0.0047 0.294211,0.291552 0.296241,0.766443 0.0047,1.060654 -0.291623,0.29414 -0.766442,0.29624 -1.060653,0.0047 -0.294211,-0.291552 -0.296312,-0.766512 -0.0047,-1.060653 z"
     fill="#6D37FF"
     id="path2"
     style="fill:url(#linearGradient6)" />
  <path
     d="m 24.510763,18.659232 c -0.0042,1.6569 -1.3507,2.9966 -3.0076,2.9925 l -17.9999001,-0.0453 c -1.65684,-0.0041 -2.99660955,-1.3507 -2.99244425,-3.0075 l 0.003771,-1.5 c 0.004165,-1.6569 1.35068315,-2.9966 3.00753315,-2.9925 l 8.2499401,0.0208 0.0113,-4.5000003 c -1.2426,-0.00312 -2.2474101,-1.01301 -2.2442901,-2.25565 l -8.249974,-0.02074 c -0.41421195,-0.00104 -0.74915335,-0.33767 -0.74811195,-0.75188 0.001041,-0.41422 0.337671,-0.74916 0.75188295,-0.74812 l 8.249973,0.02074 c 0.00313,-1.24263 1.0130201,-2.24746 2.2556201,-2.24433 l 1.5,0.00377 c 1.2427,0.00312 2.2475,1.01301 2.2444,2.25565 l 8.2499,0.02074 c 0.4142,0.00104 0.7492,0.33767 0.7481,0.75188 -0.001,0.41421 -0.3376,0.74916 -0.7518,0.74811 l -8.25,-0.02074 c -0.0031,1.24264 -1.013,2.24746 -2.2557,2.24434 l -0.0113,4.5000303 8.25,0.0207 c 1.6569,0.0042 2.9966,1.3507 2.9925,3.0075 z m -1.5,-0.0037 0.0038,-1.5 c 0.002,-0.8285 -0.6678,-1.5017 -1.4963,-1.5038 l -17.9999101,-0.0453 c -0.82843,-0.002 -1.50169,0.6678 -1.50377,1.4963 l -0.00377,1.5 c -0.00208,0.8284 0.6678,1.5016 1.49623,1.5037 l 17.9999201,0.0453 c 0.8284,0.0021 1.5017,-0.6678 1.5038,-1.4962 z m -8.9717,-11.2726403 0.0038,-1.49999 c 10e-4,-0.41421 -0.3339,-0.75084 -0.7481,-0.75189 l -1.5,-0.00377 c -0.4143,-0.00104 -0.7509,0.3339 -0.7519,0.74812 l -0.0038,1.49999 c -0.001,0.41421 0.3339,0.75084 0.7481,0.75188 l 1.5,0.00378 c 0.4142,0.00104 0.7509,-0.33391 0.7519,-0.74812 z"
     fill="#6d37ff"
     id="path3"
     style="fill:url(#linearGradient4)" />
</svg>
