<?xml version="1.0" encoding="UTF-8" standalone="no"?>
<svg
   width="24"
   height="24"
   viewBox="0 -5 24 37"
   fill="none"
   version="1.1"
   id="svg2"
   sodipodi:docname="database-check.svg"
   inkscape:version="1.4 (86a8ad7, 2024-10-11)"
   xmlns:inkscape="http://www.inkscape.org/namespaces/inkscape"
   xmlns:sodipodi="http://sodipodi.sourceforge.net/DTD/sodipodi-0.dtd"
   xmlns:xlink="http://www.w3.org/1999/xlink"
   xmlns="http://www.w3.org/2000/svg"
   xmlns:svg="http://www.w3.org/2000/svg">
  <defs
     id="defs2">
    <linearGradient
       id="linearGradient4"
       inkscape:collect="always">
      <stop
         style="stop-color:#6d37ff;stop-opacity:1;"
         offset="0.42774564"
         id="stop4" />
      <stop
         style="stop-color:#ffffff;stop-opacity:0;"
         offset="1"
         id="stop5" />
    </linearGradient>
    <linearGradient
       id="linearGradient2"
       inkscape:collect="always">
      <stop
         style="stop-color:#6d37ff;stop-opacity:1;"
         offset="0"
         id="stop2" />
      <stop
         style="stop-color:#ffffff;stop-opacity:0;"
         offset="1"
         id="stop3" />
    </linearGradient>
    <linearGradient
       inkscape:collect="always"
       xlink:href="#linearGradient2"
       id="linearGradient3"
       x1="14.910392"
       y1="15.169512"
       x2="22.589607"
       y2="22.330496"
       gradientUnits="userSpaceOnUse" />
    <linearGradient
       inkscape:collect="always"
       xlink:href="#linearGradient4"
       id="linearGradient5"
       x1="5.4178176"
       y1="6.6120143"
       x2="18.58218"
       y2="18.887981"
       gradientUnits="userSpaceOnUse" />
  </defs>
  <sodipodi:namedview
     id="namedview2"
     pagecolor="#ffffff"
     bordercolor="#000000"
     borderopacity="0.25"
     inkscape:showpageshadow="2"
     inkscape:pageopacity="0.0"
     inkscape:pagecheckerboard="0"
     inkscape:deskcolor="#d1d1d1"
     inkscape:zoom="23.776466"
     inkscape:cx="8.3696208"
     inkscape:cy="11.881497"
     inkscape:window-width="1920"
     inkscape:window-height="1009"
     inkscape:window-x="-8"
     inkscape:window-y="-8"
     inkscape:window-maximized="1"
     inkscape:current-layer="svg2" />
  <path
     d="M18.75 24C21.6495 24 24 21.6495 24 18.75C24 15.8505 21.6495 13.5 18.75 13.5C15.8505 13.5 13.5 15.8505 13.5 18.75C13.5 21.6495 15.8505 24 18.75 24ZM21.2681 17.2609L19.2652 20.599C18.8887 21.2266 18.0226 21.3332 17.5051 20.8157L16.3447 19.6553C16.0518 19.3624 16.0518 18.8876 16.3447 18.5947C16.6376 18.3018 17.1124 18.3018 17.4053 18.5947L18.2261 19.4154L19.9819 16.4891C20.195 16.1339 20.6557 16.0188 21.0109 16.2319C21.3661 16.445 21.4812 16.9057 21.2681 17.2609Z"
     fill="black"
     id="path1"
     style="fill:url(#linearGradient3)" />
  <path
     d="M18.144 9.33442C18.6301 9.11344 19.0934 8.85069 19.5 8.54719V10.5C19.5 10.9333 19.1809 11.4812 18.37 12.0105C18.4958 12.0035 18.6225 12 18.75 12C19.5389 12 20.2962 12.1353 21 12.3841V6C21 4.48951 19.6873 3.36708 18.144 2.66557C16.533 1.93329 14.36 1.5 12 1.5C9.63997 1.5 7.46704 1.93329 5.85602 2.66557C4.3127 3.36708 3 4.48951 3 6V19.5C3 21.0105 4.3127 22.1329 5.85602 22.8344C7.46704 23.5667 9.63997 24 12 24C12.8043 24 13.587 23.9497 14.333 23.8543C13.8659 23.4498 13.4549 22.9821 13.1132 22.4647C12.7505 22.4879 12.3789 22.5 12 22.5C9.80368 22.5 7.85161 22.0938 6.47672 21.4689C5.03412 20.8131 4.5 20.0606 4.5 19.5V17.5472C4.90657 17.8507 5.36985 18.1134 5.85602 18.3344C7.46704 19.0667 9.63997 19.5 12 19.5C12.0137 19.5 12.0275 19.5 12.0412 19.5C12.014 19.2537 12 19.0035 12 18.75C12 18.4965 12.014 18.2462 12.0412 18C12.0275 18 12.0137 18 12 18C9.80368 18 7.85161 17.5938 6.47672 16.9689C5.03412 16.3131 4.5 15.5606 4.5 15V13.0472C4.90657 13.3507 5.36985 13.6134 5.85602 13.8344C7.46704 14.5667 9.63997 15 12 15C12.3926 15 12.78 14.988 13.1605 14.9646C13.6077 14.3057 14.1683 13.7299 14.8143 13.2655C13.9477 13.416 12.9991 13.5 12 13.5C9.80368 13.5 7.85161 13.0938 6.47672 12.4689C5.03412 11.8131 4.5 11.0606 4.5 10.5V8.54719C4.90657 8.85069 5.36985 9.11344 5.85602 9.33442C7.46704 10.0667 9.63997 10.5 12 10.5C14.36 10.5 16.533 10.0667 18.144 9.33442ZM4.5 6C4.5 5.43943 5.03412 4.68685 6.47672 4.03112C7.85161 3.40617 9.80368 3 12 3C14.1963 3 16.1484 3.40617 17.5233 4.03112C18.9659 4.68685 19.5 5.43943 19.5 6C19.5 6.56057 18.9659 7.31315 17.5233 7.96888C16.1484 8.59383 14.1963 9 12 9C9.80368 9 7.85161 8.59383 6.47672 7.96888C5.03412 7.31315 4.5 6.56057 4.5 6Z"
     fill="black"
     id="path2"
     style="fill:url(#linearGradient5);fill-opacity:1" />
</svg>
