<?xml version="1.0" encoding="UTF-8" standalone="no"?>
<svg
   width="24"
   height="24"
   viewBox="0 -6.5 23 38"
   fill="none"
   version="1.1"
   id="svg2"
   sodipodi:docname="envelope-at.svg"
   inkscape:version="1.4 (86a8ad7, 2024-10-11)"
   xmlns:inkscape="http://www.inkscape.org/namespaces/inkscape"
   xmlns:sodipodi="http://sodipodi.sourceforge.net/DTD/sodipodi-0.dtd"
   xmlns:xlink="http://www.w3.org/1999/xlink"
   xmlns="http://www.w3.org/2000/svg"
   xmlns:svg="http://www.w3.org/2000/svg">
  <defs
     id="defs2">
    <linearGradient
       id="linearGradient4"
       inkscape:collect="always">
      <stop
         style="stop-color:#6d37ff;stop-opacity:1;"
         offset="0.52312136"
         id="stop4" />
      <stop
         style="stop-color:#ffffff;stop-opacity:0;"
         offset="1"
         id="stop5" />
    </linearGradient>
    <linearGradient
       id="linearGradient2"
       inkscape:collect="always">
      <stop
         style="stop-color:#6d37ff;stop-opacity:1;"
         offset="0"
         id="stop2" />
      <stop
         style="stop-color:#ffffff;stop-opacity:0;"
         offset="1"
         id="stop3" />
    </linearGradient>
    <linearGradient
       inkscape:collect="always"
       xlink:href="#linearGradient2"
       id="linearGradient3"
       x1="15.469889"
       y1="14.711128"
       x2="21.78091"
       y2="22.78887"
       gradientUnits="userSpaceOnUse" />
    <linearGradient
       inkscape:collect="always"
       xlink:href="#linearGradient4"
       id="linearGradient5"
       x1="4.1272931"
       y1="2.9434845"
       x2="19.872711"
       y2="21.056517"
       gradientUnits="userSpaceOnUse" />
  </defs>
  <sodipodi:namedview
     id="namedview2"
     pagecolor="#ffffff"
     bordercolor="#000000"
     borderopacity="0.25"
     inkscape:showpageshadow="2"
     inkscape:pageopacity="0.0"
     inkscape:pagecheckerboard="0"
     inkscape:deskcolor="#d1d1d1"
     inkscape:zoom="33.625"
     inkscape:cx="11.98513"
     inkscape:cy="12"
     inkscape:window-width="1920"
     inkscape:window-height="1009"
     inkscape:window-x="-8"
     inkscape:window-y="-8"
     inkscape:window-maximized="1"
     inkscape:current-layer="svg2" />
  <path
     d="M3 3C1.34315 3 0 4.34315 0 6V18L3.87579e-05 18.0154C0.00833997 19.6652 1.34829 21 3 21H11.25C11.6642 21 12 20.6642 12 20.25C12 19.8358 11.6642 19.5 11.25 19.5H3C2.30572 19.5 1.72162 19.0283 1.55065 18.3879L10.0113 13.1814L12 14.3746L22.5 8.07464V12.75C22.5 13.1642 22.8358 13.5 23.25 13.5C23.6642 13.5 24 13.1642 24 12.75V6C24 4.34315 22.6569 3 21 3H3ZM8.56211 12.3119L1.5 16.6578V8.07464L8.56211 12.3119ZM1.5 6.32536V6C1.5 5.17157 2.17157 4.5 3 4.5H21C21.8284 4.5 22.5 5.17157 22.5 6V6.32536L12 12.6254L1.5 6.32536Z"
     fill="#6D37FF"
     id="path1"
     style="fill:url(#linearGradient5)" />
  <path
     d="M21.3701 21.4029C22.8851 21.4029 23.7508 20.1174 23.7508 18.3663V18.0515C23.7508 15.6446 21.9603 13.5 18.7795 13.5H18.727C15.6315 13.5 13.5 15.5397 13.5 18.6483V18.9697C13.5 22.2292 15.6577 24 18.5369 24H18.6024C19.4944 24 20.1305 23.8885 20.4585 23.7377V22.6424C20.0912 22.8064 19.4485 22.9113 18.6877 22.9113H18.6221C16.6218 22.9113 14.7658 21.7308 14.7658 18.9304V18.6943C14.7658 16.2086 16.3529 14.6084 18.727 14.6084H18.7861C21.0881 14.6084 22.5112 16.1824 22.5112 18.0974V18.2745C22.5112 19.737 22.0259 20.3601 21.5537 20.3601C21.2061 20.3601 20.9372 20.1371 20.9372 19.7305V16.4447H19.5796V17.2973H19.5337C19.4091 16.8513 18.9828 16.3529 18.104 16.3529C16.9366 16.3529 16.2152 17.1858 16.2152 18.4516V19.2452C16.2152 20.5831 16.9497 21.3963 18.104 21.3963C18.8123 21.3963 19.4485 21.0553 19.6255 20.4322H19.6911C19.8682 21.0618 20.6159 21.4029 21.3701 21.4029ZM17.6908 19.0222V18.6811C17.6908 17.8613 18.0319 17.4941 18.55 17.4941C18.9959 17.4941 19.4091 17.7826 19.4091 18.5565V19.1074C19.4091 19.9666 19.0287 20.2224 18.5631 20.2224C18.0319 20.2224 17.6908 19.901 17.6908 19.0222Z"
     fill="#6D37FF"
     id="path2"
     style="fill:url(#linearGradient3)" />
</svg>
