<?xml version="1.0" encoding="UTF-8" standalone="no"?>
<svg
   width="24"
   height="24"
   viewBox="0 -5 24 35"
   fill="none"
   version="1.1"
   id="svg3"
   sodipodi:docname="percent1.svg"
   inkscape:version="1.4 (86a8ad7, 2024-10-11)"
   xmlns:inkscape="http://www.inkscape.org/namespaces/inkscape"
   xmlns:sodipodi="http://sodipodi.sourceforge.net/DTD/sodipodi-0.dtd"
   xmlns:xlink="http://www.w3.org/1999/xlink"
   xmlns="http://www.w3.org/2000/svg"
   xmlns:svg="http://www.w3.org/2000/svg">
  <defs
     id="defs3">
    <linearGradient
       id="linearGradient10"
       inkscape:collect="always">
      <stop
         style="stop-color:#ffffff;stop-opacity:0;"
         offset="1.2e-07"
         id="stop10" />
      <stop
         style="stop-color:#6d37ff;stop-opacity:1;"
         offset="0.23410416"
         id="stop9" />
    </linearGradient>
    <linearGradient
       id="linearGradient6"
       inkscape:collect="always">
      <stop
         style="stop-color:#6d37ff;stop-opacity:1;"
         offset="1"
         id="stop6" />
      <stop
         style="stop-color:#ffffff;stop-opacity:0;"
         offset="1"
         id="stop7" />
    </linearGradient>
    <linearGradient
       id="linearGradient4"
       inkscape:collect="always">
      <stop
         style="stop-color:#6d37ff;stop-opacity:1;"
         offset="0.349711"
         id="stop4" />
      <stop
         style="stop-color:#ffffff;stop-opacity:0;"
         offset="0.89306355"
         id="stop5" />
    </linearGradient>
    <linearGradient
       inkscape:collect="always"
       xlink:href="#linearGradient4"
       id="linearGradient5"
       x1="14.78977"
       y1="14.419834"
       x2="19.710226"
       y2="20.08017"
       gradientUnits="userSpaceOnUse" />
    <linearGradient
       inkscape:collect="always"
       xlink:href="#linearGradient6"
       id="linearGradient7"
       x1="4.0524769"
       y1="4.1450315"
       x2="9.4475222"
       y2="9.3549662"
       gradientUnits="userSpaceOnUse" />
    <linearGradient
       inkscape:collect="always"
       xlink:href="#linearGradient10"
       id="linearGradient9"
       x1="6.4587364"
       y1="5.1547356"
       x2="18.909271"
       y2="17.506939"
       gradientUnits="userSpaceOnUse" />
  </defs>
  <sodipodi:namedview
     id="namedview3"
     pagecolor="#ffffff"
     bordercolor="#000000"
     borderopacity="0.25"
     inkscape:showpageshadow="2"
     inkscape:pageopacity="0.0"
     inkscape:pagecheckerboard="0"
     inkscape:deskcolor="#d1d1d1"
     inkscape:zoom="33.625"
     inkscape:cx="11.98513"
     inkscape:cy="12"
     inkscape:window-width="1920"
     inkscape:window-height="1009"
     inkscape:window-x="-8"
     inkscape:window-y="-8"
     inkscape:window-maximized="1"
     inkscape:current-layer="svg3" />
  <path
     d="m 20.1629,3.83709 c 0.3661,0.36611 0.3661,0.95971 0,1.32582 L 11.265135,14.060675 5.16291,20.1629 c -0.36611,0.3661 -0.95971,0.3661 -1.32582,0 -0.36612,-0.3661 -0.36612,-0.9597 0,-1.3258 L 18.8371,3.83709 c 0.3661,-0.36612 0.9597,-0.36612 1.3258,0 z"
     fill="#6D37FF"
     id="path1"
     style="mix-blend-mode:normal;fill:url(#linearGradient9)"
     sodipodi:nodetypes="cccccccc" />
  <path
     d="M6.75 9C5.50736 9 4.5 7.99264 4.5 6.75C4.5 5.50736 5.50736 4.5 6.75 4.5C7.99264 4.5 9 5.50736 9 6.75C9 7.99264 7.99264 9 6.75 9ZM6.75 10.5C8.82107 10.5 10.5 8.82107 10.5 6.75C10.5 4.67893 8.82107 3 6.75 3C4.67893 3 3 4.67893 3 6.75C3 8.82107 4.67893 10.5 6.75 10.5Z"
     fill="#6D37FF"
     id="path2"
     style="fill:url(#linearGradient7);fill-rule:nonzero" />
  <path
     d="M17.25 19.5C16.0074 19.5 15 18.4926 15 17.25C15 16.0074 16.0074 15 17.25 15C18.4926 15 19.5 16.0074 19.5 17.25C19.5 18.4926 18.4926 19.5 17.25 19.5ZM17.25 21C19.3211 21 21 19.3211 21 17.25C21 15.1789 19.3211 13.5 17.25 13.5C15.1789 13.5 13.5 15.1789 13.5 17.25C13.5 19.3211 15.1789 21 17.25 21Z"
     fill="#6D37FF"
     id="path3"
     style="fill:url(#linearGradient5)" />
</svg>
