<?xml version="1.0" encoding="UTF-8" standalone="no"?>
<svg
   viewBox="0 -5 24 35"
   width="24"
   height="24"
   version="1.1"
   id="svg2"
   sodipodi:docname="subsystem.svg"
   inkscape:version="1.4 (86a8ad7, 2024-10-11)"
   xmlns:inkscape="http://www.inkscape.org/namespaces/inkscape"
   xmlns:sodipodi="http://sodipodi.sourceforge.net/DTD/sodipodi-0.dtd"
   xmlns:xlink="http://www.w3.org/1999/xlink"
   xmlns="http://www.w3.org/2000/svg"
   xmlns:svg="http://www.w3.org/2000/svg">
  <defs
     id="defs2">
    <linearGradient
       id="linearGradient4"
       inkscape:collect="always">
      <stop
         style="stop-color:#6d37ff;stop-opacity:1;"
         offset="0.2986773"
         id="stop4" />
      <stop
         style="stop-color:#ffffff;stop-opacity:0;"
         offset="1"
         id="stop5" />
    </linearGradient>
    <linearGradient
       id="linearGradient2"
       inkscape:collect="always">
      <stop
         style="stop-color:#6d37ff;stop-opacity:1;"
         offset="0.30041313"
         id="stop2" />
      <stop
         style="stop-color:#ffffff;stop-opacity:0;"
         offset="1"
         id="stop3" />
    </linearGradient>
    <linearGradient
       inkscape:collect="always"
       xlink:href="#linearGradient2"
       id="linearGradient3"
       x1="5.3917999"
       y1="5.1585813"
       x2="18.6042"
       y2="18.840422"
       gradientUnits="userSpaceOnUse"
       spreadMethod="pad" />
    <linearGradient
       inkscape:collect="always"
       xlink:href="#linearGradient4"
       id="linearGradient5"
       x1="22.893421"
       y1="19.189844"
       x2="15.606957"
       y2="14.811695"
       gradientUnits="userSpaceOnUse" />
    <filter
       inkscape:collect="always"
       style="color-interpolation-filters:sRGB"
       id="filter6"
       x="-0.00023212642"
       y="-0.00020233005"
       width="1.0004643"
       height="1.0004047">
      <feGaussianBlur
         inkscape:collect="always"
         stdDeviation="0.0018396019"
         id="feGaussianBlur6" />
    </filter>
  </defs>
  <sodipodi:namedview
     id="namedview2"
     pagecolor="#ffffff"
     bordercolor="#000000"
     borderopacity="0.25"
     inkscape:showpageshadow="2"
     inkscape:pageopacity="0.0"
     inkscape:pagecheckerboard="0"
     inkscape:deskcolor="#d1d1d1"
     inkscape:zoom="23.776466"
     inkscape:cx="10.22019"
     inkscape:cy="11.713263"
     inkscape:window-width="1920"
     inkscape:window-height="1009"
     inkscape:window-x="-8"
     inkscape:window-y="-8"
     inkscape:window-maximized="1"
     inkscape:current-layer="svg2" />
  <path
     d="M5.505 9.117a7.723 7.723 0 0 1-1.497-.852V12c0 .524.473 1.23 1.8 1.883 1.267.625 3.085 1.071 5.18 1.182a.76.76 0 0 1-.08 1.517c-2.242-.118-4.274-.598-5.772-1.336a7.264 7.264 0 0 1-1.128-.68V18.3c0 .282.127.61.476.973.352.366.899.732 1.633 1.055 1.466.645 3.545 1.063 5.881 1.063.577 0 1.14-.025 1.683-.074a.76.76 0 0 1 .135 1.513 20.47 20.47 0 0 1-1.818.08c-2.496 0-4.792-.443-6.493-1.192-.849-.374-1.584-.838-2.117-1.393-.536-.558-.9-1.244-.9-2.025V5.7c0-.782.364-1.467.9-2.025.533-.555 1.268-1.02 2.117-1.393 1.7-.749 3.997-1.193 6.493-1.193 2.497 0 4.793.444 6.493 1.193.85.373 1.585.838 2.117 1.393.537.558.9 1.243.9 2.025 0 .781-.363 1.467-.9 2.025-.532.554-1.267 1.02-2.117 1.393-1.7.748-3.996 1.192-6.493 1.192-2.496 0-4.792-.444-6.493-1.192Zm-1.021-4.39c-.35.362-.476.69-.476.972 0 .282.127.61.476.972.352.367.899.732 1.633 1.055 1.466.646 3.545 1.064 5.881 1.064 2.337 0 4.415-.418 5.882-1.064.734-.323 1.28-.688 1.633-1.055.35-.363.476-.69.476-.972 0-.282-.127-.61-.476-.973-.353-.367-.9-.732-1.633-1.055-1.467-.645-3.545-1.063-5.882-1.063-2.336 0-4.415.418-5.88 1.063-.735.323-1.282.688-1.634 1.055Z"
     id="path1"
     style="fill:url(#linearGradient3);opacity:1;filter:url(#filter6)" />
  <path
     d="M21.425 11.11a.5.5 0 0 0-.881-.418l-5.438 6.937a.5.5 0 0 0 .394.808h3.268l-.945 4.46a.5.5 0 0 0 .888.405l4.688-6.188a.5.5 0 0 0-.399-.802h-2.745l1.17-5.202Z"
     id="path2"
     style="fill:url(#linearGradient5)" />
</svg>
