<?xml version="1.0" encoding="UTF-8" standalone="no"?>
<svg
   width="24"
   height="24"
   fill="currentColor"
   class="bi bi-send-check"
   viewBox="-3 -6 24 27"
   version="1.1"
   id="svg2"
   sodipodi:docname="telegram-check.svg"
   inkscape:version="1.4 (86a8ad7, 2024-10-11)"
   xmlns:inkscape="http://www.inkscape.org/namespaces/inkscape"
   xmlns:sodipodi="http://sodipodi.sourceforge.net/DTD/sodipodi-0.dtd"
   xmlns:xlink="http://www.w3.org/1999/xlink"
   xmlns="http://www.w3.org/2000/svg"
   xmlns:svg="http://www.w3.org/2000/svg">
  <defs
     id="defs2">
    <linearGradient
       id="linearGradient4"
       inkscape:collect="always">
      <stop
         style="stop-color:#7136ff;stop-opacity:1;"
         offset="0.20231213"
         id="stop4" />
      <stop
         style="stop-color:#ffffff;stop-opacity:0.64851487;"
         offset="1"
         id="stop5" />
    </linearGradient>
    <linearGradient
       id="linearGradient2"
       inkscape:collect="always">
      <stop
         style="stop-color:#6d37ff;stop-opacity:1;"
         offset="0.26300576"
         id="stop2" />
      <stop
         style="stop-color:#ffffff;stop-opacity:0;"
         offset="1"
         id="stop3" />
    </linearGradient>
    <linearGradient
       inkscape:collect="always"
       xlink:href="#linearGradient2"
       id="linearGradient3"
       x1="4.4614472"
       y1="-0.43689686"
       x2="11.834071"
       y2="13.428991"
       gradientUnits="userSpaceOnUse" />
    <linearGradient
       inkscape:collect="always"
       xlink:href="#linearGradient4"
       id="linearGradient5"
       x1="14.143148"
       y1="15.590311"
       x2="10.856853"
       y2="9.4096851"
       gradientUnits="userSpaceOnUse" />
  </defs>
  <sodipodi:namedview
     id="namedview2"
     pagecolor="#ffffff"
     bordercolor="#000000"
     borderopacity="0.25"
     inkscape:showpageshadow="2"
     inkscape:pageopacity="0.0"
     inkscape:pagecheckerboard="0"
     inkscape:deskcolor="#d1d1d1"
     inkscape:zoom="35.664698"
     inkscape:cx="7.9630563"
     inkscape:cy="7.86492"
     inkscape:window-width="1920"
     inkscape:window-height="1009"
     inkscape:window-x="-8"
     inkscape:window-y="-8"
     inkscape:window-maximized="1"
     inkscape:current-layer="svg2" />
  <path
     d="M15.964.686a.5.5 0 0 0-.65-.65L.767 5.855a.75.75 0 0 0-.124 1.329l4.995 3.178 1.531 2.406a.5.5 0 0 0 .844-.536L6.637 10.07l7.494-7.494-1.895 4.738a.5.5 0 1 0 .928.372l2.8-7Zm-2.54 1.183L5.93 9.363 1.591 6.602l11.833-4.733Z"
     id="path1"
     style="fill:url(#linearGradient3)" />
  <path
     d="M16 12.5a3.5 3.5 0 1 1-7 0 3.5 3.5 0 0 1 7 0m-1.993-1.679a.5.5 0 0 0-.686.172l-1.17 1.95-.547-.547a.5.5 0 0 0-.708.708l.774.773a.75.75 0 0 0 1.174-.144l1.335-2.226a.5.5 0 0 0-.172-.686Z"
     id="path2"
     style="fill:url(#linearGradient5)" />
</svg>
